<mxfile host="65bd71144e">
    <diagram id="H9d_J8xQ58lQjLFMFozQ" name="Page-1">
        <mxGraphModel dx="4680" dy="3331" grid="1" gridSize="10" guides="1" tooltips="1" connect="1" arrows="1" fold="1" page="0" pageScale="1" pageWidth="840" pageHeight="1100" math="0" shadow="0">
            <root>
                <mxCell id="0"/>
                <mxCell id="1" parent="0"/>
                <mxCell id="11" value="" style="swimlane;startSize=0;collapsible=0;movable=1;" vertex="1" parent="1">
                    <mxGeometry x="80" y="270" width="500" height="220" as="geometry"/>
                </mxCell>
                <mxCell id="CPoJECELRoabucDXCPVV-16" value="D1" style="rhombus;whiteSpace=wrap;html=1;" parent="11" vertex="1">
                    <mxGeometry y="90" width="40" height="40" as="geometry"/>
                </mxCell>
                <mxCell id="CPoJECELRoabucDXCPVV-1" value="C4" style="ellipse;whiteSpace=wrap;html=1;aspect=fixed;" parent="11" vertex="1">
                    <mxGeometry x="120" y="170" width="40" height="40" as="geometry"/>
                </mxCell>
                <mxCell id="CPoJECELRoabucDXCPVV-20" style="edgeStyle=none;rounded=0;orthogonalLoop=1;jettySize=auto;html=1;" parent="11" source="CPoJECELRoabucDXCPVV-16" target="CPoJECELRoabucDXCPVV-1" edge="1">
                    <mxGeometry relative="1" as="geometry">
                        <mxPoint x="440" y="180" as="sourcePoint"/>
                    </mxGeometry>
                </mxCell>
                <mxCell id="17" value="input=C" style="edgeLabel;html=1;align=center;verticalAlign=middle;resizable=0;points=[];" vertex="1" connectable="0" parent="CPoJECELRoabucDXCPVV-20">
                    <mxGeometry x="-0.2524" y="1" relative="1" as="geometry">
                        <mxPoint x="13" y="10" as="offset"/>
                    </mxGeometry>
                </mxCell>
                <mxCell id="CPoJECELRoabucDXCPVV-5" value="C5" style="ellipse;whiteSpace=wrap;html=1;aspect=fixed;" parent="11" vertex="1">
                    <mxGeometry x="240" y="170" width="40" height="40" as="geometry"/>
                </mxCell>
                <mxCell id="CPoJECELRoabucDXCPVV-10" style="edgeStyle=none;rounded=0;orthogonalLoop=1;jettySize=auto;html=1;" parent="11" source="CPoJECELRoabucDXCPVV-1" target="CPoJECELRoabucDXCPVV-5" edge="1">
                    <mxGeometry relative="1" as="geometry"/>
                </mxCell>
                <mxCell id="CPoJECELRoabucDXCPVV-3" value="C6" style="ellipse;whiteSpace=wrap;html=1;aspect=fixed;" parent="11" vertex="1">
                    <mxGeometry x="360" y="170" width="40" height="40" as="geometry"/>
                </mxCell>
                <mxCell id="CPoJECELRoabucDXCPVV-11" style="edgeStyle=none;rounded=0;orthogonalLoop=1;jettySize=auto;html=1;" parent="11" source="CPoJECELRoabucDXCPVV-5" target="CPoJECELRoabucDXCPVV-3" edge="1">
                    <mxGeometry relative="1" as="geometry"/>
                </mxCell>
                <mxCell id="CPoJECELRoabucDXCPVV-4" value="C3" style="ellipse;whiteSpace=wrap;html=1;aspect=fixed;" parent="11" vertex="1">
                    <mxGeometry x="120" y="90" width="40" height="40" as="geometry"/>
                </mxCell>
                <mxCell id="CPoJECELRoabucDXCPVV-18" style="edgeStyle=none;rounded=0;orthogonalLoop=1;jettySize=auto;html=1;" parent="11" source="CPoJECELRoabucDXCPVV-16" target="CPoJECELRoabucDXCPVV-4" edge="1">
                    <mxGeometry relative="1" as="geometry"/>
                </mxCell>
                <mxCell id="16" value="input=B" style="edgeLabel;html=1;align=center;verticalAlign=middle;resizable=0;points=[];" vertex="1" connectable="0" parent="CPoJECELRoabucDXCPVV-18">
                    <mxGeometry x="-0.4333" y="1" relative="1" as="geometry">
                        <mxPoint x="17" y="1" as="offset"/>
                    </mxGeometry>
                </mxCell>
                <mxCell id="CPoJECELRoabucDXCPVV-6" value="C1" style="ellipse;whiteSpace=wrap;html=1;aspect=fixed;" parent="11" vertex="1">
                    <mxGeometry x="120" y="10" width="40" height="40" as="geometry"/>
                </mxCell>
                <mxCell id="CPoJECELRoabucDXCPVV-19" style="edgeStyle=none;rounded=0;orthogonalLoop=1;jettySize=auto;html=1;" parent="11" source="CPoJECELRoabucDXCPVV-16" target="CPoJECELRoabucDXCPVV-6" edge="1">
                    <mxGeometry relative="1" as="geometry"/>
                </mxCell>
                <mxCell id="14" value="input=A" style="edgeLabel;html=1;align=center;verticalAlign=middle;resizable=0;points=[];" vertex="1" connectable="0" parent="CPoJECELRoabucDXCPVV-19">
                    <mxGeometry x="0.2979" y="-1" relative="1" as="geometry">
                        <mxPoint x="-13" y="7" as="offset"/>
                    </mxGeometry>
                </mxCell>
                <mxCell id="CPoJECELRoabucDXCPVV-2" value="C2" style="ellipse;whiteSpace=wrap;html=1;aspect=fixed;" parent="11" vertex="1">
                    <mxGeometry x="240" y="10" width="40" height="40" as="geometry"/>
                </mxCell>
                <mxCell id="CPoJECELRoabucDXCPVV-23" style="edgeStyle=none;rounded=0;orthogonalLoop=1;jettySize=auto;html=1;" parent="11" source="CPoJECELRoabucDXCPVV-4" target="CPoJECELRoabucDXCPVV-2" edge="1">
                    <mxGeometry relative="1" as="geometry"/>
                </mxCell>
                <mxCell id="CPoJECELRoabucDXCPVV-22" style="edgeStyle=none;rounded=0;orthogonalLoop=1;jettySize=auto;html=1;" parent="11" source="CPoJECELRoabucDXCPVV-6" target="CPoJECELRoabucDXCPVV-2" edge="1">
                    <mxGeometry relative="1" as="geometry"/>
                </mxCell>
                <mxCell id="CPoJECELRoabucDXCPVV-14" value="DB" style="shape=cylinder3;whiteSpace=wrap;html=1;boundedLbl=1;backgroundOutline=1;size=15;" parent="11" vertex="1">
                    <mxGeometry x="440" y="75" width="50" height="70" as="geometry"/>
                </mxCell>
                <mxCell id="CPoJECELRoabucDXCPVV-21" style="edgeStyle=none;rounded=0;orthogonalLoop=1;jettySize=auto;html=1;" parent="11" source="CPoJECELRoabucDXCPVV-2" target="CPoJECELRoabucDXCPVV-14" edge="1">
                    <mxGeometry relative="1" as="geometry"/>
                </mxCell>
                <mxCell id="CPoJECELRoabucDXCPVV-15" style="edgeStyle=none;rounded=0;orthogonalLoop=1;jettySize=auto;html=1;" parent="11" source="CPoJECELRoabucDXCPVV-3" target="CPoJECELRoabucDXCPVV-14" edge="1">
                    <mxGeometry relative="1" as="geometry"/>
                </mxCell>
                <mxCell id="CPoJECELRoabucDXCPVV-26" style="edgeStyle=none;rounded=0;orthogonalLoop=1;jettySize=auto;html=1;" parent="1" source="CPoJECELRoabucDXCPVV-25" target="19" edge="1">
                    <mxGeometry relative="1" as="geometry">
                        <mxPoint x="220" y="380" as="targetPoint"/>
                    </mxGeometry>
                </mxCell>
                <mxCell id="10" value="input" style="edgeLabel;html=1;align=center;verticalAlign=middle;resizable=0;points=[];" vertex="1" connectable="0" parent="CPoJECELRoabucDXCPVV-26">
                    <mxGeometry x="-0.596" y="1" relative="1" as="geometry">
                        <mxPoint x="10" y="1" as="offset"/>
                    </mxGeometry>
                </mxCell>
                <mxCell id="CPoJECELRoabucDXCPVV-25" value="Actor" style="shape=umlActor;verticalLabelPosition=bottom;verticalAlign=top;html=1;outlineConnect=0;" parent="1" vertex="1">
                    <mxGeometry x="-10" y="360" width="20" height="40" as="geometry"/>
                </mxCell>
                <mxCell id="faCAEBOteTppmktkWDnK-1" value="" style="triangle;whiteSpace=wrap;html=1;rotation=-90;" parent="1" vertex="1">
                    <mxGeometry x="120" y="520" width="240" height="320" as="geometry"/>
                </mxCell>
                <mxCell id="faCAEBOteTppmktkWDnK-3" value="" style="triangle;whiteSpace=wrap;html=1;rotation=-90;" parent="1" vertex="1">
                    <mxGeometry x="165" y="535" width="150" height="200" as="geometry"/>
                </mxCell>
                <mxCell id="faCAEBOteTppmktkWDnK-2" value="" style="triangle;whiteSpace=wrap;html=1;rotation=-90;horizontal=1;" parent="1" vertex="1">
                    <mxGeometry x="205" y="548.33" width="70" height="93.33" as="geometry"/>
                </mxCell>
                <mxCell id="faCAEBOteTppmktkWDnK-4" value="E2E&lt;br&gt;Tests" style="text;html=1;align=center;verticalAlign=middle;resizable=0;points=[];autosize=1;strokeColor=none;fillColor=none;" parent="1" vertex="1">
                    <mxGeometry x="220" y="590" width="40" height="30" as="geometry"/>
                </mxCell>
                <mxCell id="faCAEBOteTppmktkWDnK-5" value="Integration Tests" style="text;html=1;align=center;verticalAlign=middle;resizable=0;points=[];autosize=1;strokeColor=none;fillColor=none;" parent="1" vertex="1">
                    <mxGeometry x="190" y="660" width="100" height="20" as="geometry"/>
                </mxCell>
                <mxCell id="faCAEBOteTppmktkWDnK-6" value="Unit Tests" style="text;html=1;align=center;verticalAlign=middle;resizable=0;points=[];autosize=1;strokeColor=none;fillColor=none;" parent="1" vertex="1">
                    <mxGeometry x="205" y="750" width="70" height="20" as="geometry"/>
                </mxCell>
                <mxCell id="faCAEBOteTppmktkWDnK-7" value="" style="endArrow=classic;startArrow=classic;html=1;rounded=0;" parent="1" edge="1">
                    <mxGeometry width="50" height="50" relative="1" as="geometry">
                        <mxPoint x="419.5" y="800" as="sourcePoint"/>
                        <mxPoint x="419.5" y="560" as="targetPoint"/>
                    </mxGeometry>
                </mxCell>
                <mxCell id="faCAEBOteTppmktkWDnK-9" value="Faster to run&lt;br&gt;Faster to write&lt;br&gt;&lt;span style=&quot;text-align: right&quot;&gt;More isolation&lt;/span&gt;&lt;br&gt;Cheaper" style="text;html=1;align=left;verticalAlign=middle;resizable=0;points=[];autosize=1;strokeColor=none;fillColor=none;" parent="1" vertex="1">
                    <mxGeometry x="440" y="740" width="90" height="60" as="geometry"/>
                </mxCell>
                <mxCell id="faCAEBOteTppmktkWDnK-10" value="Slower to execute&lt;br&gt;Lengthier to write&lt;br&gt;&lt;span style=&quot;text-align: right&quot;&gt;More integration&lt;br&gt;&lt;/span&gt;More expensive&lt;span style=&quot;text-align: right&quot;&gt;&lt;br&gt;&lt;/span&gt;" style="text;html=1;align=left;verticalAlign=middle;resizable=0;points=[];autosize=1;strokeColor=none;fillColor=none;" parent="1" vertex="1">
                    <mxGeometry x="440" y="560" width="110" height="60" as="geometry"/>
                </mxCell>
                <mxCell id="faCAEBOteTppmktkWDnK-12" value="" style="endArrow=classic;startArrow=classic;html=1;rounded=0;" parent="1" edge="1">
                    <mxGeometry width="50" height="50" relative="1" as="geometry">
                        <mxPoint x="400" y="820" as="sourcePoint"/>
                        <mxPoint x="80" y="820" as="targetPoint"/>
                    </mxGeometry>
                </mxCell>
                <mxCell id="faCAEBOteTppmktkWDnK-13" value="Quantity of tests" style="text;html=1;align=center;verticalAlign=middle;resizable=0;points=[];autosize=1;strokeColor=none;fillColor=none;" parent="1" vertex="1">
                    <mxGeometry x="190" y="840" width="100" height="20" as="geometry"/>
                </mxCell>
                <mxCell id="2" value="" style="rhombus;whiteSpace=wrap;html=1;" vertex="1" parent="1">
                    <mxGeometry x="80" y="960" width="360" height="360" as="geometry"/>
                </mxCell>
                <mxCell id="3" value="" style="triangle;whiteSpace=wrap;html=1;rotation=-90;" vertex="1" parent="1">
                    <mxGeometry x="220" y="920" width="80" height="160" as="geometry"/>
                </mxCell>
                <mxCell id="4" value="" style="triangle;whiteSpace=wrap;html=1;rotation=90;" vertex="1" parent="1">
                    <mxGeometry x="210" y="1170" width="100" height="200" as="geometry"/>
                </mxCell>
                <mxCell id="5" value="Unit Tests&lt;br&gt;(as needed)" style="text;html=1;align=center;verticalAlign=middle;resizable=0;points=[];autosize=1;strokeColor=none;fillColor=none;" vertex="1" parent="1">
                    <mxGeometry x="215" y="1240" width="90" height="40" as="geometry"/>
                </mxCell>
                <mxCell id="6" value="Integration Tests&lt;br&gt;(most)" style="text;html=1;align=center;verticalAlign=middle;resizable=0;points=[];autosize=1;strokeColor=none;fillColor=none;" vertex="1" parent="1">
                    <mxGeometry x="205" y="1120" width="110" height="40" as="geometry"/>
                </mxCell>
                <mxCell id="7" value="E2E Tests&lt;br&gt;(few)" style="text;html=1;align=center;verticalAlign=middle;resizable=0;points=[];autosize=1;strokeColor=none;fillColor=none;" vertex="1" parent="1">
                    <mxGeometry x="220" y="989" width="80" height="40" as="geometry"/>
                </mxCell>
                <mxCell id="8" value="" style="endArrow=none;html=1;" edge="1" parent="1">
                    <mxGeometry width="50" height="50" relative="1" as="geometry">
                        <mxPoint x="2150" y="1910" as="sourcePoint"/>
                        <mxPoint x="2200" y="1860" as="targetPoint"/>
                    </mxGeometry>
                </mxCell>
                <mxCell id="9" value="" style="endArrow=none;html=1;" edge="1" parent="1">
                    <mxGeometry width="50" height="50" relative="1" as="geometry">
                        <mxPoint x="-1550" y="-1380" as="sourcePoint"/>
                        <mxPoint x="-1500" y="-1430" as="targetPoint"/>
                    </mxGeometry>
                </mxCell>
                <mxCell id="13" value="600 px MAX width" style="rounded=0;whiteSpace=wrap;html=1;fontSize=12;align=center;fontStyle=1" vertex="1" parent="1">
                    <mxGeometry x="-20" y="200" width="600" height="40" as="geometry"/>
                </mxCell>
                <mxCell id="19" value="System" style="rounded=0;whiteSpace=wrap;html=1;strokeColor=default;horizontal=0;" vertex="1" parent="1">
                    <mxGeometry x="60" y="270" width="20" height="220" as="geometry"/>
                </mxCell>
                <mxCell id="45" value="" style="swimlane;startSize=0;collapsible=0;movable=1;" vertex="1" parent="1">
                    <mxGeometry x="80" y="-50" width="500" height="220" as="geometry"/>
                </mxCell>
                <mxCell id="46" value="D1" style="rhombus;whiteSpace=wrap;html=1;opacity=50;textOpacity=50;" vertex="1" parent="45">
                    <mxGeometry y="90" width="40" height="40" as="geometry"/>
                </mxCell>
                <mxCell id="47" value="C4" style="ellipse;whiteSpace=wrap;html=1;aspect=fixed;" vertex="1" parent="45">
                    <mxGeometry x="120" y="170" width="40" height="40" as="geometry"/>
                </mxCell>
                <mxCell id="48" style="edgeStyle=none;rounded=0;orthogonalLoop=1;jettySize=auto;html=1;" edge="1" parent="45" source="46" target="47">
                    <mxGeometry relative="1" as="geometry">
                        <mxPoint x="440" y="180" as="sourcePoint"/>
                    </mxGeometry>
                </mxCell>
                <mxCell id="49" value="input=C" style="edgeLabel;html=1;align=center;verticalAlign=middle;resizable=0;points=[];" vertex="1" connectable="0" parent="48">
                    <mxGeometry x="-0.2524" y="1" relative="1" as="geometry">
                        <mxPoint x="13" y="10" as="offset"/>
                    </mxGeometry>
                </mxCell>
                <mxCell id="50" value="C5" style="ellipse;whiteSpace=wrap;html=1;aspect=fixed;" vertex="1" parent="45">
                    <mxGeometry x="240" y="170" width="40" height="40" as="geometry"/>
                </mxCell>
                <mxCell id="51" style="edgeStyle=none;rounded=0;orthogonalLoop=1;jettySize=auto;html=1;" edge="1" parent="45" source="47" target="50">
                    <mxGeometry relative="1" as="geometry"/>
                </mxCell>
                <mxCell id="52" value="C6" style="ellipse;whiteSpace=wrap;html=1;aspect=fixed;" vertex="1" parent="45">
                    <mxGeometry x="360" y="170" width="40" height="40" as="geometry"/>
                </mxCell>
                <mxCell id="53" style="edgeStyle=none;rounded=0;orthogonalLoop=1;jettySize=auto;html=1;" edge="1" parent="45" source="50" target="52">
                    <mxGeometry relative="1" as="geometry"/>
                </mxCell>
                <mxCell id="54" value="C3" style="ellipse;whiteSpace=wrap;html=1;aspect=fixed;opacity=50;textOpacity=50;" vertex="1" parent="45">
                    <mxGeometry x="120" y="90" width="40" height="40" as="geometry"/>
                </mxCell>
                <mxCell id="55" style="edgeStyle=none;rounded=0;orthogonalLoop=1;jettySize=auto;html=1;opacity=50;" edge="1" parent="45" source="46" target="54">
                    <mxGeometry relative="1" as="geometry"/>
                </mxCell>
                <mxCell id="57" value="C1" style="ellipse;whiteSpace=wrap;html=1;aspect=fixed;opacity=50;textOpacity=50;" vertex="1" parent="45">
                    <mxGeometry x="120" y="10" width="40" height="40" as="geometry"/>
                </mxCell>
                <mxCell id="58" style="edgeStyle=none;rounded=0;orthogonalLoop=1;jettySize=auto;html=1;opacity=50;" edge="1" parent="45" source="46" target="57">
                    <mxGeometry relative="1" as="geometry"/>
                </mxCell>
                <mxCell id="60" value="C2" style="ellipse;whiteSpace=wrap;html=1;aspect=fixed;opacity=50;textOpacity=50;" vertex="1" parent="45">
                    <mxGeometry x="240" y="10" width="40" height="40" as="geometry"/>
                </mxCell>
                <mxCell id="61" style="edgeStyle=none;rounded=0;orthogonalLoop=1;jettySize=auto;html=1;opacity=50;" edge="1" parent="45" source="54" target="60">
                    <mxGeometry relative="1" as="geometry"/>
                </mxCell>
                <mxCell id="62" style="edgeStyle=none;rounded=0;orthogonalLoop=1;jettySize=auto;html=1;opacity=50;" edge="1" parent="45" source="57" target="60">
                    <mxGeometry relative="1" as="geometry"/>
                </mxCell>
                <mxCell id="63" value="DB" style="shape=cylinder3;whiteSpace=wrap;html=1;boundedLbl=1;backgroundOutline=1;size=15;" vertex="1" parent="45">
                    <mxGeometry x="440" y="75" width="50" height="70" as="geometry"/>
                </mxCell>
                <mxCell id="64" style="edgeStyle=none;rounded=0;orthogonalLoop=1;jettySize=auto;html=1;opacity=50;" edge="1" parent="45" source="60" target="63">
                    <mxGeometry relative="1" as="geometry"/>
                </mxCell>
                <mxCell id="65" style="edgeStyle=none;rounded=0;orthogonalLoop=1;jettySize=auto;html=1;" edge="1" parent="45" source="52" target="63">
                    <mxGeometry relative="1" as="geometry"/>
                </mxCell>
                <mxCell id="66" style="edgeStyle=none;rounded=0;orthogonalLoop=1;jettySize=auto;html=1;opacity=50;" edge="1" parent="1" source="68" target="69">
                    <mxGeometry relative="1" as="geometry">
                        <mxPoint x="220" y="60" as="targetPoint"/>
                    </mxGeometry>
                </mxCell>
                <mxCell id="68" value="Actor" style="shape=umlActor;verticalLabelPosition=bottom;verticalAlign=top;html=1;outlineConnect=0;opacity=50;textOpacity=50;" vertex="1" parent="1">
                    <mxGeometry x="-10" y="40" width="20" height="40" as="geometry"/>
                </mxCell>
                <mxCell id="69" value="System" style="rounded=0;whiteSpace=wrap;html=1;strokeColor=default;horizontal=0;" vertex="1" parent="1">
                    <mxGeometry x="60" y="-50" width="20" height="220" as="geometry"/>
                </mxCell>
                <mxCell id="70" value="" style="swimlane;startSize=0;collapsible=0;movable=1;" vertex="1" parent="1">
                    <mxGeometry x="80" y="-300" width="500" height="220" as="geometry"/>
                </mxCell>
                <mxCell id="71" value="D1" style="rhombus;whiteSpace=wrap;html=1;opacity=50;textOpacity=50;" vertex="1" parent="70">
                    <mxGeometry y="90" width="40" height="40" as="geometry"/>
                </mxCell>
                <mxCell id="72" value="C4" style="ellipse;whiteSpace=wrap;html=1;aspect=fixed;opacity=50;textOpacity=50;" vertex="1" parent="70">
                    <mxGeometry x="120" y="170" width="40" height="40" as="geometry"/>
                </mxCell>
                <mxCell id="73" style="edgeStyle=none;rounded=0;orthogonalLoop=1;jettySize=auto;html=1;opacity=50;" edge="1" parent="70" source="71" target="72">
                    <mxGeometry relative="1" as="geometry">
                        <mxPoint x="440" y="180" as="sourcePoint"/>
                    </mxGeometry>
                </mxCell>
                <mxCell id="75" value="C5" style="ellipse;whiteSpace=wrap;html=1;aspect=fixed;opacity=50;textOpacity=50;" vertex="1" parent="70">
                    <mxGeometry x="240" y="170" width="40" height="40" as="geometry"/>
                </mxCell>
                <mxCell id="76" style="edgeStyle=none;rounded=0;orthogonalLoop=1;jettySize=auto;html=1;opacity=50;" edge="1" parent="70" source="72" target="75">
                    <mxGeometry relative="1" as="geometry"/>
                </mxCell>
                <mxCell id="77" value="C6" style="ellipse;whiteSpace=wrap;html=1;aspect=fixed;opacity=50;textOpacity=50;" vertex="1" parent="70">
                    <mxGeometry x="360" y="170" width="40" height="40" as="geometry"/>
                </mxCell>
                <mxCell id="78" style="edgeStyle=none;rounded=0;orthogonalLoop=1;jettySize=auto;html=1;opacity=50;" edge="1" parent="70" source="75" target="77">
                    <mxGeometry relative="1" as="geometry"/>
                </mxCell>
                <mxCell id="79" value="C3" style="ellipse;whiteSpace=wrap;html=1;aspect=fixed;" vertex="1" parent="70">
                    <mxGeometry x="120" y="90" width="40" height="40" as="geometry"/>
                </mxCell>
                <mxCell id="80" style="edgeStyle=none;rounded=0;orthogonalLoop=1;jettySize=auto;html=1;" edge="1" parent="70" source="71" target="79">
                    <mxGeometry relative="1" as="geometry"/>
                </mxCell>
                <mxCell id="81" value="input=B" style="edgeLabel;html=1;align=center;verticalAlign=middle;resizable=0;points=[];" vertex="1" connectable="0" parent="80">
                    <mxGeometry x="-0.4333" y="1" relative="1" as="geometry">
                        <mxPoint x="17" y="1" as="offset"/>
                    </mxGeometry>
                </mxCell>
                <mxCell id="82" value="C1" style="ellipse;whiteSpace=wrap;html=1;aspect=fixed;opacity=50;textOpacity=50;" vertex="1" parent="70">
                    <mxGeometry x="120" y="10" width="40" height="40" as="geometry"/>
                </mxCell>
                <mxCell id="83" style="edgeStyle=none;rounded=0;orthogonalLoop=1;jettySize=auto;html=1;opacity=50;" edge="1" parent="70" source="71" target="82">
                    <mxGeometry relative="1" as="geometry"/>
                </mxCell>
                <mxCell id="85" value="C2" style="ellipse;whiteSpace=wrap;html=1;aspect=fixed;" vertex="1" parent="70">
                    <mxGeometry x="240" y="10" width="40" height="40" as="geometry"/>
                </mxCell>
                <mxCell id="86" style="edgeStyle=none;rounded=0;orthogonalLoop=1;jettySize=auto;html=1;" edge="1" parent="70" source="79" target="85">
                    <mxGeometry relative="1" as="geometry"/>
                </mxCell>
                <mxCell id="87" style="edgeStyle=none;rounded=0;orthogonalLoop=1;jettySize=auto;html=1;opacity=50;" edge="1" parent="70" source="82" target="85">
                    <mxGeometry relative="1" as="geometry"/>
                </mxCell>
                <mxCell id="88" value="DB" style="shape=cylinder3;whiteSpace=wrap;html=1;boundedLbl=1;backgroundOutline=1;size=15;" vertex="1" parent="70">
                    <mxGeometry x="440" y="75" width="50" height="70" as="geometry"/>
                </mxCell>
                <mxCell id="89" style="edgeStyle=none;rounded=0;orthogonalLoop=1;jettySize=auto;html=1;" edge="1" parent="70" source="85" target="88">
                    <mxGeometry relative="1" as="geometry"/>
                </mxCell>
                <mxCell id="90" style="edgeStyle=none;rounded=0;orthogonalLoop=1;jettySize=auto;html=1;opacity=50;strokeColor=default;" edge="1" parent="70" source="77" target="88">
                    <mxGeometry relative="1" as="geometry"/>
                </mxCell>
                <mxCell id="91" style="edgeStyle=none;rounded=0;orthogonalLoop=1;jettySize=auto;html=1;opacity=50;" edge="1" parent="1" source="93" target="94">
                    <mxGeometry relative="1" as="geometry">
                        <mxPoint x="220" y="-190" as="targetPoint"/>
                    </mxGeometry>
                </mxCell>
                <mxCell id="93" value="Actor" style="shape=umlActor;verticalLabelPosition=bottom;verticalAlign=top;html=1;outlineConnect=0;opacity=50;textOpacity=50;" vertex="1" parent="1">
                    <mxGeometry x="-10" y="-210" width="20" height="40" as="geometry"/>
                </mxCell>
                <mxCell id="94" value="System" style="rounded=0;whiteSpace=wrap;html=1;strokeColor=default;horizontal=0;" vertex="1" parent="1">
                    <mxGeometry x="60" y="-300" width="20" height="220" as="geometry"/>
                </mxCell>
                <mxCell id="95" value="" style="swimlane;startSize=0;collapsible=0;movable=1;" vertex="1" parent="1">
                    <mxGeometry x="-540" y="-300" width="500" height="220" as="geometry"/>
                </mxCell>
                <mxCell id="96" value="D1" style="rhombus;whiteSpace=wrap;html=1;textOpacity=50;opacity=50;strokeWidth=1;strokeColor=default;" vertex="1" parent="95">
                    <mxGeometry y="90" width="40" height="40" as="geometry"/>
                </mxCell>
                <mxCell id="97" value="C4" style="ellipse;whiteSpace=wrap;html=1;aspect=fixed;opacity=50;textOpacity=50;" vertex="1" parent="95">
                    <mxGeometry x="120" y="170" width="40" height="40" as="geometry"/>
                </mxCell>
                <mxCell id="98" style="edgeStyle=none;rounded=0;orthogonalLoop=1;jettySize=auto;html=1;opacity=50;" edge="1" parent="95" source="96" target="97">
                    <mxGeometry relative="1" as="geometry">
                        <mxPoint x="440" y="180" as="sourcePoint"/>
                    </mxGeometry>
                </mxCell>
                <mxCell id="100" value="C5" style="ellipse;whiteSpace=wrap;html=1;aspect=fixed;opacity=50;textOpacity=50;" vertex="1" parent="95">
                    <mxGeometry x="240" y="170" width="40" height="40" as="geometry"/>
                </mxCell>
                <mxCell id="101" style="edgeStyle=none;rounded=0;orthogonalLoop=1;jettySize=auto;html=1;opacity=50;" edge="1" parent="95" source="97" target="100">
                    <mxGeometry relative="1" as="geometry"/>
                </mxCell>
                <mxCell id="102" value="C6" style="ellipse;whiteSpace=wrap;html=1;aspect=fixed;opacity=50;textOpacity=50;" vertex="1" parent="95">
                    <mxGeometry x="360" y="170" width="40" height="40" as="geometry"/>
                </mxCell>
                <mxCell id="103" style="edgeStyle=none;rounded=0;orthogonalLoop=1;jettySize=auto;html=1;opacity=50;" edge="1" parent="95" source="100" target="102">
                    <mxGeometry relative="1" as="geometry"/>
                </mxCell>
                <mxCell id="104" value="C3" style="ellipse;whiteSpace=wrap;html=1;aspect=fixed;opacity=50;textOpacity=50;" vertex="1" parent="95">
                    <mxGeometry x="120" y="90" width="40" height="40" as="geometry"/>
                </mxCell>
                <mxCell id="105" style="edgeStyle=none;rounded=0;orthogonalLoop=1;jettySize=auto;html=1;opacity=50;" edge="1" parent="95" source="96" target="104">
                    <mxGeometry relative="1" as="geometry"/>
                </mxCell>
                <mxCell id="107" value="C1" style="ellipse;whiteSpace=wrap;html=1;aspect=fixed;" vertex="1" parent="95">
                    <mxGeometry x="120" y="10" width="40" height="40" as="geometry"/>
                </mxCell>
                <mxCell id="108" style="edgeStyle=none;rounded=0;orthogonalLoop=1;jettySize=auto;html=1;" edge="1" parent="95" source="96" target="107">
                    <mxGeometry relative="1" as="geometry"/>
                </mxCell>
                <mxCell id="109" value="input=A" style="edgeLabel;html=1;align=center;verticalAlign=middle;resizable=0;points=[];" vertex="1" connectable="0" parent="108">
                    <mxGeometry x="0.2979" y="-1" relative="1" as="geometry">
                        <mxPoint x="-13" y="7" as="offset"/>
                    </mxGeometry>
                </mxCell>
                <mxCell id="110" value="C2" style="ellipse;whiteSpace=wrap;html=1;aspect=fixed;" vertex="1" parent="95">
                    <mxGeometry x="240" y="10" width="40" height="40" as="geometry"/>
                </mxCell>
                <mxCell id="111" style="edgeStyle=none;rounded=0;orthogonalLoop=1;jettySize=auto;html=1;opacity=50;" edge="1" parent="95" source="104" target="110">
                    <mxGeometry relative="1" as="geometry"/>
                </mxCell>
                <mxCell id="112" style="edgeStyle=none;rounded=0;orthogonalLoop=1;jettySize=auto;html=1;" edge="1" parent="95" source="107" target="110">
                    <mxGeometry relative="1" as="geometry"/>
                </mxCell>
                <mxCell id="113" value="DB" style="shape=cylinder3;whiteSpace=wrap;html=1;boundedLbl=1;backgroundOutline=1;size=15;" vertex="1" parent="95">
                    <mxGeometry x="440" y="75" width="50" height="70" as="geometry"/>
                </mxCell>
                <mxCell id="114" style="edgeStyle=none;rounded=0;orthogonalLoop=1;jettySize=auto;html=1;" edge="1" parent="95" source="110" target="113">
                    <mxGeometry relative="1" as="geometry"/>
                </mxCell>
                <mxCell id="115" style="edgeStyle=none;rounded=0;orthogonalLoop=1;jettySize=auto;html=1;opacity=50;" edge="1" parent="95" source="102" target="113">
                    <mxGeometry relative="1" as="geometry"/>
                </mxCell>
                <mxCell id="116" style="edgeStyle=none;rounded=0;orthogonalLoop=1;jettySize=auto;html=1;opacity=50;" edge="1" parent="1" source="118" target="119">
                    <mxGeometry relative="1" as="geometry">
                        <mxPoint x="-400" y="-190" as="targetPoint"/>
                    </mxGeometry>
                </mxCell>
                <mxCell id="118" value="Actor" style="shape=umlActor;verticalLabelPosition=bottom;verticalAlign=top;html=1;outlineConnect=0;opacity=50;textOpacity=50;" vertex="1" parent="1">
                    <mxGeometry x="-630" y="-210" width="20" height="40" as="geometry"/>
                </mxCell>
                <mxCell id="119" value="System" style="rounded=0;whiteSpace=wrap;html=1;strokeColor=default;horizontal=0;" vertex="1" parent="1">
                    <mxGeometry x="-560" y="-300" width="20" height="220" as="geometry"/>
                </mxCell>
                <mxCell id="145" value="" style="swimlane;startSize=0;collapsible=0;movable=1;" vertex="1" parent="1">
                    <mxGeometry x="80" y="-780" width="500" height="220" as="geometry"/>
                </mxCell>
                <mxCell id="146" value="D1" style="rhombus;whiteSpace=wrap;html=1;" vertex="1" parent="145">
                    <mxGeometry y="90" width="40" height="40" as="geometry"/>
                </mxCell>
                <mxCell id="147" value="C4" style="ellipse;whiteSpace=wrap;html=1;aspect=fixed;opacity=50;textOpacity=50;" vertex="1" parent="145">
                    <mxGeometry x="120" y="170" width="40" height="40" as="geometry"/>
                </mxCell>
                <mxCell id="148" style="edgeStyle=none;rounded=0;orthogonalLoop=1;jettySize=auto;html=1;" edge="1" parent="145" source="146" target="147">
                    <mxGeometry relative="1" as="geometry">
                        <mxPoint x="440" y="180" as="sourcePoint"/>
                    </mxGeometry>
                </mxCell>
                <mxCell id="149" value="input=C" style="edgeLabel;html=1;align=center;verticalAlign=middle;resizable=0;points=[];" vertex="1" connectable="0" parent="148">
                    <mxGeometry x="-0.2524" y="1" relative="1" as="geometry">
                        <mxPoint x="13" y="10" as="offset"/>
                    </mxGeometry>
                </mxCell>
                <mxCell id="150" value="C5" style="ellipse;whiteSpace=wrap;html=1;aspect=fixed;opacity=50;textOpacity=50;" vertex="1" parent="145">
                    <mxGeometry x="240" y="170" width="40" height="40" as="geometry"/>
                </mxCell>
                <mxCell id="151" style="edgeStyle=none;rounded=0;orthogonalLoop=1;jettySize=auto;html=1;opacity=50;" edge="1" parent="145" source="147" target="150">
                    <mxGeometry relative="1" as="geometry"/>
                </mxCell>
                <mxCell id="152" value="C6" style="ellipse;whiteSpace=wrap;html=1;aspect=fixed;opacity=50;textOpacity=50;" vertex="1" parent="145">
                    <mxGeometry x="360" y="170" width="40" height="40" as="geometry"/>
                </mxCell>
                <mxCell id="153" style="edgeStyle=none;rounded=0;orthogonalLoop=1;jettySize=auto;html=1;opacity=50;" edge="1" parent="145" source="150" target="152">
                    <mxGeometry relative="1" as="geometry"/>
                </mxCell>
                <mxCell id="154" value="C3" style="ellipse;whiteSpace=wrap;html=1;aspect=fixed;opacity=50;textOpacity=50;" vertex="1" parent="145">
                    <mxGeometry x="120" y="90" width="40" height="40" as="geometry"/>
                </mxCell>
                <mxCell id="155" style="edgeStyle=none;rounded=0;orthogonalLoop=1;jettySize=auto;html=1;" edge="1" parent="145" source="146" target="154">
                    <mxGeometry relative="1" as="geometry"/>
                </mxCell>
                <mxCell id="156" value="input=B" style="edgeLabel;html=1;align=center;verticalAlign=middle;resizable=0;points=[];" vertex="1" connectable="0" parent="155">
                    <mxGeometry x="-0.4333" y="1" relative="1" as="geometry">
                        <mxPoint x="17" y="1" as="offset"/>
                    </mxGeometry>
                </mxCell>
                <mxCell id="157" value="C1" style="ellipse;whiteSpace=wrap;html=1;aspect=fixed;opacity=50;textOpacity=50;" vertex="1" parent="145">
                    <mxGeometry x="120" y="10" width="40" height="40" as="geometry"/>
                </mxCell>
                <mxCell id="158" style="edgeStyle=none;rounded=0;orthogonalLoop=1;jettySize=auto;html=1;" edge="1" parent="145" source="146" target="157">
                    <mxGeometry relative="1" as="geometry"/>
                </mxCell>
                <mxCell id="159" value="input=A" style="edgeLabel;html=1;align=center;verticalAlign=middle;resizable=0;points=[];" vertex="1" connectable="0" parent="158">
                    <mxGeometry x="0.2979" y="-1" relative="1" as="geometry">
                        <mxPoint x="-13" y="7" as="offset"/>
                    </mxGeometry>
                </mxCell>
                <mxCell id="160" value="C2" style="ellipse;whiteSpace=wrap;html=1;aspect=fixed;opacity=50;textOpacity=50;" vertex="1" parent="145">
                    <mxGeometry x="240" y="10" width="40" height="40" as="geometry"/>
                </mxCell>
                <mxCell id="161" style="edgeStyle=none;rounded=0;orthogonalLoop=1;jettySize=auto;html=1;opacity=50;" edge="1" parent="145" source="154" target="160">
                    <mxGeometry relative="1" as="geometry"/>
                </mxCell>
                <mxCell id="162" style="edgeStyle=none;rounded=0;orthogonalLoop=1;jettySize=auto;html=1;opacity=50;" edge="1" parent="145" source="157" target="160">
                    <mxGeometry relative="1" as="geometry"/>
                </mxCell>
                <mxCell id="163" value="DB" style="shape=cylinder3;whiteSpace=wrap;html=1;boundedLbl=1;backgroundOutline=1;size=15;opacity=50;textOpacity=50;" vertex="1" parent="145">
                    <mxGeometry x="440" y="75" width="50" height="70" as="geometry"/>
                </mxCell>
                <mxCell id="164" style="edgeStyle=none;rounded=0;orthogonalLoop=1;jettySize=auto;html=1;opacity=50;" edge="1" parent="145" source="160" target="163">
                    <mxGeometry relative="1" as="geometry"/>
                </mxCell>
                <mxCell id="165" style="edgeStyle=none;rounded=0;orthogonalLoop=1;jettySize=auto;html=1;opacity=50;" edge="1" parent="145" source="152" target="163">
                    <mxGeometry relative="1" as="geometry"/>
                </mxCell>
                <mxCell id="166" style="edgeStyle=none;rounded=0;orthogonalLoop=1;jettySize=auto;html=1;" edge="1" parent="1" source="168" target="169">
                    <mxGeometry relative="1" as="geometry">
                        <mxPoint x="220" y="-670" as="targetPoint"/>
                    </mxGeometry>
                </mxCell>
                <mxCell id="167" value="input" style="edgeLabel;html=1;align=center;verticalAlign=middle;resizable=0;points=[];" vertex="1" connectable="0" parent="166">
                    <mxGeometry x="-0.596" y="1" relative="1" as="geometry">
                        <mxPoint x="10" y="1" as="offset"/>
                    </mxGeometry>
                </mxCell>
                <mxCell id="168" value="Actor" style="shape=umlActor;verticalLabelPosition=bottom;verticalAlign=top;html=1;outlineConnect=0;" vertex="1" parent="1">
                    <mxGeometry x="-10" y="-690" width="20" height="40" as="geometry"/>
                </mxCell>
                <mxCell id="169" value="System" style="rounded=0;whiteSpace=wrap;html=1;strokeColor=default;horizontal=0;" vertex="1" parent="1">
                    <mxGeometry x="60" y="-780" width="20" height="220" as="geometry"/>
                </mxCell>
                <mxCell id="171" value="" style="swimlane;startSize=0;collapsible=0;movable=1;" vertex="1" parent="1">
                    <mxGeometry x="740" y="-300" width="500" height="220" as="geometry"/>
                </mxCell>
                <mxCell id="172" value="D1" style="rhombus;whiteSpace=wrap;html=1;opacity=50;textOpacity=50;" vertex="1" parent="171">
                    <mxGeometry y="90" width="40" height="40" as="geometry"/>
                </mxCell>
                <mxCell id="173" value="C4" style="ellipse;whiteSpace=wrap;html=1;aspect=fixed;opacity=50;textOpacity=50;" vertex="1" parent="171">
                    <mxGeometry x="120" y="170" width="40" height="40" as="geometry"/>
                </mxCell>
                <mxCell id="174" style="edgeStyle=none;rounded=0;orthogonalLoop=1;jettySize=auto;html=1;opacity=50;" edge="1" parent="171" source="172" target="173">
                    <mxGeometry relative="1" as="geometry">
                        <mxPoint x="440" y="180" as="sourcePoint"/>
                    </mxGeometry>
                </mxCell>
                <mxCell id="175" value="C5" style="ellipse;whiteSpace=wrap;html=1;aspect=fixed;opacity=50;textOpacity=50;" vertex="1" parent="171">
                    <mxGeometry x="240" y="170" width="40" height="40" as="geometry"/>
                </mxCell>
                <mxCell id="176" style="edgeStyle=none;rounded=0;orthogonalLoop=1;jettySize=auto;html=1;opacity=50;" edge="1" parent="171" source="173" target="175">
                    <mxGeometry relative="1" as="geometry"/>
                </mxCell>
                <mxCell id="177" value="C6" style="ellipse;whiteSpace=wrap;html=1;aspect=fixed;opacity=50;textOpacity=50;" vertex="1" parent="171">
                    <mxGeometry x="360" y="170" width="40" height="40" as="geometry"/>
                </mxCell>
                <mxCell id="178" style="edgeStyle=none;rounded=0;orthogonalLoop=1;jettySize=auto;html=1;opacity=50;" edge="1" parent="171" source="175" target="177">
                    <mxGeometry relative="1" as="geometry"/>
                </mxCell>
                <mxCell id="179" value="C3" style="ellipse;whiteSpace=wrap;html=1;aspect=fixed;" vertex="1" parent="171">
                    <mxGeometry x="120" y="90" width="40" height="40" as="geometry"/>
                </mxCell>
                <mxCell id="180" style="edgeStyle=none;rounded=0;orthogonalLoop=1;jettySize=auto;html=1;" edge="1" parent="171" source="172" target="179">
                    <mxGeometry relative="1" as="geometry"/>
                </mxCell>
                <mxCell id="181" value="input=B" style="edgeLabel;html=1;align=center;verticalAlign=middle;resizable=0;points=[];" vertex="1" connectable="0" parent="180">
                    <mxGeometry x="-0.4333" y="1" relative="1" as="geometry">
                        <mxPoint x="17" y="1" as="offset"/>
                    </mxGeometry>
                </mxCell>
                <mxCell id="182" value="C1" style="ellipse;whiteSpace=wrap;html=1;aspect=fixed;opacity=50;textOpacity=50;" vertex="1" parent="171">
                    <mxGeometry x="120" y="10" width="40" height="40" as="geometry"/>
                </mxCell>
                <mxCell id="183" style="edgeStyle=none;rounded=0;orthogonalLoop=1;jettySize=auto;html=1;opacity=50;" edge="1" parent="171" source="172" target="182">
                    <mxGeometry relative="1" as="geometry"/>
                </mxCell>
                <mxCell id="184" value="C2" style="ellipse;whiteSpace=wrap;html=1;aspect=fixed;opacity=50;textOpacity=50;" vertex="1" parent="171">
                    <mxGeometry x="240" y="10" width="40" height="40" as="geometry"/>
                </mxCell>
                <mxCell id="185" style="edgeStyle=none;rounded=0;orthogonalLoop=1;jettySize=auto;html=1;" edge="1" parent="171" source="179" target="184">
                    <mxGeometry relative="1" as="geometry"/>
                </mxCell>
                <mxCell id="186" style="edgeStyle=none;rounded=0;orthogonalLoop=1;jettySize=auto;html=1;opacity=50;" edge="1" parent="171" source="182" target="184">
                    <mxGeometry relative="1" as="geometry"/>
                </mxCell>
                <mxCell id="187" value="DB" style="shape=cylinder3;whiteSpace=wrap;html=1;boundedLbl=1;backgroundOutline=1;size=15;opacity=50;textOpacity=50;" vertex="1" parent="171">
                    <mxGeometry x="440" y="75" width="50" height="70" as="geometry"/>
                </mxCell>
                <mxCell id="188" style="edgeStyle=none;rounded=0;orthogonalLoop=1;jettySize=auto;html=1;opacity=50;textOpacity=50;" edge="1" parent="171" source="184" target="187">
                    <mxGeometry relative="1" as="geometry"/>
                </mxCell>
                <mxCell id="189" style="edgeStyle=none;rounded=0;orthogonalLoop=1;jettySize=auto;html=1;opacity=50;strokeColor=default;" edge="1" parent="171" source="177" target="187">
                    <mxGeometry relative="1" as="geometry"/>
                </mxCell>
                <mxCell id="190" style="edgeStyle=none;rounded=0;orthogonalLoop=1;jettySize=auto;html=1;opacity=50;" edge="1" parent="1" source="191" target="192">
                    <mxGeometry relative="1" as="geometry">
                        <mxPoint x="880" y="-190" as="targetPoint"/>
                    </mxGeometry>
                </mxCell>
                <mxCell id="191" value="Actor" style="shape=umlActor;verticalLabelPosition=bottom;verticalAlign=top;html=1;outlineConnect=0;opacity=50;textOpacity=50;" vertex="1" parent="1">
                    <mxGeometry x="650" y="-210" width="20" height="40" as="geometry"/>
                </mxCell>
                <mxCell id="192" value="System" style="rounded=0;whiteSpace=wrap;html=1;strokeColor=default;horizontal=0;" vertex="1" parent="1">
                    <mxGeometry x="720" y="-300" width="20" height="220" as="geometry"/>
                </mxCell>
                <mxCell id="193" value="" style="swimlane;startSize=0;collapsible=0;movable=1;" vertex="1" parent="1">
                    <mxGeometry x="740" y="-540" width="500" height="220" as="geometry"/>
                </mxCell>
                <mxCell id="194" value="D1" style="rhombus;whiteSpace=wrap;html=1;textOpacity=50;opacity=50;strokeWidth=1;strokeColor=default;" vertex="1" parent="193">
                    <mxGeometry y="90" width="40" height="40" as="geometry"/>
                </mxCell>
                <mxCell id="195" value="C4" style="ellipse;whiteSpace=wrap;html=1;aspect=fixed;opacity=50;textOpacity=50;" vertex="1" parent="193">
                    <mxGeometry x="120" y="170" width="40" height="40" as="geometry"/>
                </mxCell>
                <mxCell id="196" style="edgeStyle=none;rounded=0;orthogonalLoop=1;jettySize=auto;html=1;opacity=50;" edge="1" parent="193" source="194" target="195">
                    <mxGeometry relative="1" as="geometry">
                        <mxPoint x="440" y="180" as="sourcePoint"/>
                    </mxGeometry>
                </mxCell>
                <mxCell id="197" value="C5" style="ellipse;whiteSpace=wrap;html=1;aspect=fixed;opacity=50;textOpacity=50;" vertex="1" parent="193">
                    <mxGeometry x="240" y="170" width="40" height="40" as="geometry"/>
                </mxCell>
                <mxCell id="198" style="edgeStyle=none;rounded=0;orthogonalLoop=1;jettySize=auto;html=1;opacity=50;" edge="1" parent="193" source="195" target="197">
                    <mxGeometry relative="1" as="geometry"/>
                </mxCell>
                <mxCell id="199" value="C6" style="ellipse;whiteSpace=wrap;html=1;aspect=fixed;opacity=50;textOpacity=50;" vertex="1" parent="193">
                    <mxGeometry x="360" y="170" width="40" height="40" as="geometry"/>
                </mxCell>
                <mxCell id="200" style="edgeStyle=none;rounded=0;orthogonalLoop=1;jettySize=auto;html=1;opacity=50;" edge="1" parent="193" source="197" target="199">
                    <mxGeometry relative="1" as="geometry"/>
                </mxCell>
                <mxCell id="201" value="C3" style="ellipse;whiteSpace=wrap;html=1;aspect=fixed;opacity=50;textOpacity=50;" vertex="1" parent="193">
                    <mxGeometry x="120" y="90" width="40" height="40" as="geometry"/>
                </mxCell>
                <mxCell id="202" style="edgeStyle=none;rounded=0;orthogonalLoop=1;jettySize=auto;html=1;opacity=50;" edge="1" parent="193" source="194" target="201">
                    <mxGeometry relative="1" as="geometry"/>
                </mxCell>
                <mxCell id="203" value="C1" style="ellipse;whiteSpace=wrap;html=1;aspect=fixed;" vertex="1" parent="193">
                    <mxGeometry x="120" y="10" width="40" height="40" as="geometry"/>
                </mxCell>
                <mxCell id="204" style="edgeStyle=none;rounded=0;orthogonalLoop=1;jettySize=auto;html=1;" edge="1" parent="193" source="194" target="203">
                    <mxGeometry relative="1" as="geometry"/>
                </mxCell>
                <mxCell id="205" value="input=A" style="edgeLabel;html=1;align=center;verticalAlign=middle;resizable=0;points=[];" vertex="1" connectable="0" parent="204">
                    <mxGeometry x="0.2979" y="-1" relative="1" as="geometry">
                        <mxPoint x="-13" y="7" as="offset"/>
                    </mxGeometry>
                </mxCell>
                <mxCell id="206" value="C2" style="ellipse;whiteSpace=wrap;html=1;aspect=fixed;opacity=50;textOpacity=50;" vertex="1" parent="193">
                    <mxGeometry x="240" y="10" width="40" height="40" as="geometry"/>
                </mxCell>
                <mxCell id="207" style="edgeStyle=none;rounded=0;orthogonalLoop=1;jettySize=auto;html=1;opacity=50;" edge="1" parent="193" source="201" target="206">
                    <mxGeometry relative="1" as="geometry"/>
                </mxCell>
                <mxCell id="208" style="edgeStyle=none;rounded=0;orthogonalLoop=1;jettySize=auto;html=1;" edge="1" parent="193" source="203" target="206">
                    <mxGeometry relative="1" as="geometry"/>
                </mxCell>
                <mxCell id="209" value="DB" style="shape=cylinder3;whiteSpace=wrap;html=1;boundedLbl=1;backgroundOutline=1;size=15;opacity=50;textOpacity=50;" vertex="1" parent="193">
                    <mxGeometry x="440" y="75" width="50" height="70" as="geometry"/>
                </mxCell>
                <mxCell id="210" style="edgeStyle=none;rounded=0;orthogonalLoop=1;jettySize=auto;html=1;opacity=50;textOpacity=50;" edge="1" parent="193" source="206" target="209">
                    <mxGeometry relative="1" as="geometry"/>
                </mxCell>
                <mxCell id="211" style="edgeStyle=none;rounded=0;orthogonalLoop=1;jettySize=auto;html=1;opacity=50;" edge="1" parent="193" source="199" target="209">
                    <mxGeometry relative="1" as="geometry"/>
                </mxCell>
                <mxCell id="212" style="edgeStyle=none;rounded=0;orthogonalLoop=1;jettySize=auto;html=1;opacity=50;" edge="1" parent="1" source="213" target="214">
                    <mxGeometry relative="1" as="geometry">
                        <mxPoint x="880" y="-430" as="targetPoint"/>
                    </mxGeometry>
                </mxCell>
                <mxCell id="213" value="Actor" style="shape=umlActor;verticalLabelPosition=bottom;verticalAlign=top;html=1;outlineConnect=0;opacity=50;textOpacity=50;" vertex="1" parent="1">
                    <mxGeometry x="650" y="-450" width="20" height="40" as="geometry"/>
                </mxCell>
                <mxCell id="214" value="System" style="rounded=0;whiteSpace=wrap;html=1;strokeColor=default;horizontal=0;" vertex="1" parent="1">
                    <mxGeometry x="720" y="-540" width="20" height="220" as="geometry"/>
                </mxCell>
                <mxCell id="215" value="" style="swimlane;startSize=0;collapsible=0;movable=1;" vertex="1" parent="1">
                    <mxGeometry x="1360" y="-420" width="500" height="220" as="geometry"/>
                </mxCell>
                <mxCell id="216" value="D1" style="rhombus;whiteSpace=wrap;html=1;opacity=50;textOpacity=50;" vertex="1" parent="215">
                    <mxGeometry y="90" width="40" height="40" as="geometry"/>
                </mxCell>
                <mxCell id="217" value="C4" style="ellipse;whiteSpace=wrap;html=1;aspect=fixed;opacity=50;textOpacity=50;" vertex="1" parent="215">
                    <mxGeometry x="120" y="170" width="40" height="40" as="geometry"/>
                </mxCell>
                <mxCell id="218" style="edgeStyle=none;rounded=0;orthogonalLoop=1;jettySize=auto;html=1;opacity=50;" edge="1" parent="215" source="216" target="217">
                    <mxGeometry relative="1" as="geometry">
                        <mxPoint x="440" y="180" as="sourcePoint"/>
                    </mxGeometry>
                </mxCell>
                <mxCell id="219" value="C5" style="ellipse;whiteSpace=wrap;html=1;aspect=fixed;opacity=50;textOpacity=50;" vertex="1" parent="215">
                    <mxGeometry x="240" y="170" width="40" height="40" as="geometry"/>
                </mxCell>
                <mxCell id="220" style="edgeStyle=none;rounded=0;orthogonalLoop=1;jettySize=auto;html=1;opacity=50;" edge="1" parent="215" source="217" target="219">
                    <mxGeometry relative="1" as="geometry"/>
                </mxCell>
                <mxCell id="221" value="C6" style="ellipse;whiteSpace=wrap;html=1;aspect=fixed;opacity=50;textOpacity=50;" vertex="1" parent="215">
                    <mxGeometry x="360" y="170" width="40" height="40" as="geometry"/>
                </mxCell>
                <mxCell id="222" style="edgeStyle=none;rounded=0;orthogonalLoop=1;jettySize=auto;html=1;opacity=50;" edge="1" parent="215" source="219" target="221">
                    <mxGeometry relative="1" as="geometry"/>
                </mxCell>
                <mxCell id="223" value="C3" style="ellipse;whiteSpace=wrap;html=1;aspect=fixed;opacity=50;textOpacity=50;" vertex="1" parent="215">
                    <mxGeometry x="120" y="90" width="40" height="40" as="geometry"/>
                </mxCell>
                <mxCell id="224" style="edgeStyle=none;rounded=0;orthogonalLoop=1;jettySize=auto;html=1;opacity=50;" edge="1" parent="215" source="216" target="223">
                    <mxGeometry relative="1" as="geometry"/>
                </mxCell>
                <mxCell id="226" value="C1" style="ellipse;whiteSpace=wrap;html=1;aspect=fixed;opacity=50;textOpacity=50;" vertex="1" parent="215">
                    <mxGeometry x="120" y="10" width="40" height="40" as="geometry"/>
                </mxCell>
                <mxCell id="227" style="edgeStyle=none;rounded=0;orthogonalLoop=1;jettySize=auto;html=1;opacity=50;" edge="1" parent="215" source="216" target="226">
                    <mxGeometry relative="1" as="geometry"/>
                </mxCell>
                <mxCell id="228" value="C2" style="ellipse;whiteSpace=wrap;html=1;aspect=fixed;" vertex="1" parent="215">
                    <mxGeometry x="240" y="10" width="40" height="40" as="geometry"/>
                </mxCell>
                <mxCell id="229" style="edgeStyle=none;rounded=0;orthogonalLoop=1;jettySize=auto;html=1;" edge="1" parent="215" source="223" target="228">
                    <mxGeometry relative="1" as="geometry"/>
                </mxCell>
                <mxCell id="230" style="edgeStyle=none;rounded=0;orthogonalLoop=1;jettySize=auto;html=1;" edge="1" parent="215" source="226" target="228">
                    <mxGeometry relative="1" as="geometry"/>
                </mxCell>
                <mxCell id="231" value="DB" style="shape=cylinder3;whiteSpace=wrap;html=1;boundedLbl=1;backgroundOutline=1;size=15;" vertex="1" parent="215">
                    <mxGeometry x="440" y="75" width="50" height="70" as="geometry"/>
                </mxCell>
                <mxCell id="232" style="edgeStyle=none;rounded=0;orthogonalLoop=1;jettySize=auto;html=1;" edge="1" parent="215" source="228" target="231">
                    <mxGeometry relative="1" as="geometry"/>
                </mxCell>
                <mxCell id="233" style="edgeStyle=none;rounded=0;orthogonalLoop=1;jettySize=auto;html=1;opacity=50;strokeColor=default;" edge="1" parent="215" source="221" target="231">
                    <mxGeometry relative="1" as="geometry"/>
                </mxCell>
                <mxCell id="234" style="edgeStyle=none;rounded=0;orthogonalLoop=1;jettySize=auto;html=1;opacity=50;" edge="1" parent="1" source="235" target="236">
                    <mxGeometry relative="1" as="geometry">
                        <mxPoint x="1500" y="-310" as="targetPoint"/>
                    </mxGeometry>
                </mxCell>
                <mxCell id="235" value="Actor" style="shape=umlActor;verticalLabelPosition=bottom;verticalAlign=top;html=1;outlineConnect=0;opacity=50;textOpacity=50;" vertex="1" parent="1">
                    <mxGeometry x="1270" y="-330" width="20" height="40" as="geometry"/>
                </mxCell>
                <mxCell id="236" value="System" style="rounded=0;whiteSpace=wrap;html=1;strokeColor=default;horizontal=0;" vertex="1" parent="1">
                    <mxGeometry x="1340" y="-420" width="20" height="220" as="geometry"/>
                </mxCell>
            </root>
        </mxGraphModel>
    </diagram>
</mxfile>